HIERARCHY
ROOT hips
{
  OFFSET 0 10.6860622 2.3727825e-15
  CHANNELS 6 Xposition Yposition Zposition Yrotation Xrotation Zrotation
  JOINT leftUpperLeg
  {
    OFFSET 0.6642549969 -0.9402397400000004 0
    CHANNELS 3 Yrotation Xrotation Zrotation
    JOINT leftLowerLeg
    {
      OFFSET 0 -3.997221335632195 0
      CHANNELS 3 Yrotation Xrotation Zrotation
      JOINT leftFoot
      {
        OFFSET -0.13777839790000004 -4.6145792000000005 -0.22186036399999998
        CHANNELS 3 Yrotation Xrotation Zrotation
        JOINT leftToes
        {
          OFFSET -0.03777410834999995 -0.9130806927000008 0.85230013
          CHANNELS 3 Yrotation Xrotation Zrotation
          End Site
          {
            OFFSET -0.03777410834999995 -0.9130806927000008 0.85230013
          }
        }
      }
    }
  }
  JOINT rightUpperLeg
  {
    OFFSET -0.6642778626 -0.9402397400000004 0
    CHANNELS 3 Yrotation Xrotation Zrotation
    JOINT rightLowerLeg
    {
      OFFSET 0 -3.997221452859387 0
      CHANNELS 3 Yrotation Xrotation Zrotation
      JOINT rightFoot
      {
        OFFSET 0.1377926176 -4.6145792000000005 -0.22185782299999995
        CHANNELS 3 Yrotation Xrotation Zrotation
        JOINT rightToes
        {
          OFFSET 0.037780746850000047 -0.9130806927000008 0.85230167
          CHANNELS 3 Yrotation Xrotation Zrotation
          End Site
          {
            OFFSET 0.037780746850000047 -0.9130806927000008 0.85230167
          }
        }
      }
    }
  }
  JOINT spine
  {
    OFFSET 0 0.13988381660000015 0
    CHANNELS 3 Yrotation Xrotation Zrotation
    JOINT chest
    {
      OFFSET 0 0.6191039003973773 0
      CHANNELS 3 Yrotation Xrotation Zrotation
      JOINT upperChest
      {
        OFFSET 0 0.9855186130586943 0
        CHANNELS 3 Yrotation Xrotation Zrotation
        JOINT leftShoulder
        {
          OFFSET 0.1807663869 1.5087829790000005 0
          CHANNELS 3 Yrotation Xrotation Zrotation
          JOINT leftUpperArm
          {
            OFFSET 0.5985063006419806 0 0
            CHANNELS 3 Yrotation Xrotation Zrotation
            JOINT leftLowerArm
            {
              OFFSET 2.2993332369501065 0 0
              CHANNELS 3 Yrotation Xrotation Zrotation
              JOINT leftHand
              {
                OFFSET 2.395047042602395 0 0
                CHANNELS 3 Yrotation Xrotation Zrotation
                JOINT leftIndexProximal
                {
                  OFFSET 0.5766295810000004 0.04556643899499946 0.17265095988184
                  CHANNELS 3 Yrotation Xrotation Zrotation
                  JOINT leftIndexIntermediate
                  {
                    OFFSET 0.2957229000000008 -0.019352197700001517 -0.007932640616999987
                    CHANNELS 3 Yrotation Xrotation Zrotation
                    JOINT leftIndexDistal
                    {
                      OFFSET 0.19008243099999922 -0.012484908149998475 -0.002786250786000012
                      CHANNELS 3 Yrotation Xrotation Zrotation
                      End Site
                      {
                        OFFSET 0.19008243099999922 -0.012484908149998475 -0.002786250786000012
                      }
                    }
                  }
                }
                JOINT leftMiddleProximal
                {
                  OFFSET 0.5834975091000001 0.0524350405149987 0.02204081888183999
                  CHANNELS 3 Yrotation Xrotation Zrotation
                  JOINT leftMiddleIntermediate
                  {
                    OFFSET 0.33880573540000003 -0.019871473270000717 -0.00000971183179999946
                    CHANNELS 3 Yrotation Xrotation Zrotation
                    JOINT leftMiddleDistal
                    {
                      OFFSET 0.20676022730000088 -0.012221336379999448 0.0001471936708000235
                      CHANNELS 3 Yrotation Xrotation Zrotation
                      End Site
                      {
                        OFFSET 0.20676022730000088 -0.012221336379999448 0.0001471936708000235
                      }
                    }
                  }
                }
                JOINT leftLittleProximal
                {
                  OFFSET 0.5344154683999995 -0.012880921405001189 -0.24414037221816004
                  CHANNELS 3 Yrotation Xrotation Zrotation
                  JOINT leftLittleIntermediate
                  {
                    OFFSET 0.21758961730000093 -0.011650919939999227 0.011893592810000034
                    CHANNELS 3 Yrotation Xrotation Zrotation
                    JOINT leftLittleDistal
                    {
                      OFFSET 0.1475273964999999 -0.008152365682999818 0.006001092492999946
                      CHANNELS 3 Yrotation Xrotation Zrotation
                      End Site
                      {
                        OFFSET 0.1475273964999999 -0.008152365682999818 0.006001092492999946
                      }
                    }
                  }
                }
                JOINT leftRingProximal
                {
                  OFFSET 0.5799399463000003 0.026911854694997794 -0.12150566991816003
                  CHANNELS 3 Yrotation Xrotation Zrotation
                  JOINT leftRingIntermediate
                  {
                    OFFSET 0.26167887460000006 -0.013480186499999602 0.010996293000000053
                    CHANNELS 3 Yrotation Xrotation Zrotation
                    JOINT leftRingDistal
                    {
                      OFFSET 0.17667108799999987 -0.008990287899999228 0.0055541023999999065
                      CHANNELS 3 Yrotation Xrotation Zrotation
                      End Site
                      {
                        OFFSET 0.17667108799999987 -0.008990287899999228 0.0055541023999999065
                      }
                    }
                  }
                }
                JOINT leftThumbProximal
                {
                  OFFSET 0.11018806699999972 -0.09448718900500053 0.17047963138184
                  CHANNELS 3 Yrotation Xrotation Zrotation
                  JOINT leftThumbIntermediate
                  {
                    OFFSET 0.31062601459999983 -0.08126270900000132 0.15443142000000007
                    CHANNELS 3 Yrotation Xrotation Zrotation
                    JOINT leftThumbDistal
                    {
                      OFFSET 0.21627175790000086 -0.08833193599999878 0.018771167799999988
                      CHANNELS 3 Yrotation Xrotation Zrotation
                      End Site
                      {
                        OFFSET 0.21627175790000086 -0.08833193599999878 0.018771167799999988
                      }
                    }
                  }
                }
              }
            }
          }
        }
        JOINT neck
        {
          OFFSET 0 1.5463305265074576 0
          CHANNELS 3 Yrotation Xrotation Zrotation
          JOINT head
          {
            OFFSET 0 0.8456443600000344 0
            CHANNELS 3 Yrotation Xrotation Zrotation
            JOINT leftEye
            {
              OFFSET 0.30408573140000006 0.5104519199999995 0.1276382305
              CHANNELS 3 Yrotation Xrotation Zrotation
              End Site
              {
                OFFSET 0.30408573140000006 0.5104519199999995 0.1276382305
              }
            }
            JOINT rightEye
            {
              OFFSET -0.30409491089999996 0.5104519199999995 0.1276379445
              CHANNELS 3 Yrotation Xrotation Zrotation
              End Site
              {
                OFFSET -0.30409491089999996 0.5104519199999995 0.1276379445
              }
            }
            JOINT jaw
            {
              OFFSET -3.155239131000001e-7 -0.11984121820000082 0.60178107
              CHANNELS 3 Yrotation Xrotation Zrotation
              End Site
              {
                OFFSET -3.155239131000001e-7 -0.11984121820000082 0.60178107
              }
            }
          }
        }
        JOINT rightShoulder
        {
          OFFSET -0.1807303465 1.5087829790000005 0
          CHANNELS 3 Yrotation Xrotation Zrotation
          JOINT rightUpperArm
          {
            OFFSET -0.5985063796536958 0 0
            CHANNELS 3 Yrotation Xrotation Zrotation
            JOINT rightLowerArm
            {
              OFFSET -2.2993322059002854 0 0
              CHANNELS 3 Yrotation Xrotation Zrotation
              JOINT rightHand
              {
                OFFSET -2.395045314457259 0 0
                CHANNELS 3 Yrotation Xrotation Zrotation
                JOINT rightIndexProximal
                {
                  OFFSET -0.5764487688300002 0.0441371204405987 0.17361932004999997
                  CHANNELS 3 Yrotation Xrotation Zrotation
                  JOINT rightIndexIntermediate
                  {
                    OFFSET -0.29573011380000047 -0.01934826376999843 -0.007698921482999974
                    CHANNELS 3 Yrotation Xrotation Zrotation
                    JOINT rightIndexDistal
                    {
                      OFFSET -0.19008373999999884 -0.012503266380000655 -0.0026365778999999897
                      CHANNELS 3 Yrotation Xrotation Zrotation
                      End Site
                      {
                        OFFSET -0.19008373999999884 -0.012503266380000655 -0.0026365778999999897
                      }
                    }
                  }
                }
                JOINT rightMiddleProximal
                {
                  OFFSET -0.5834852037300005 0.05211639405060153 0.02307162440000001
                  CHANNELS 3 Yrotation Xrotation Zrotation
                  JOINT rightMiddleIntermediate
                  {
                    OFFSET -0.33880114510000003 -0.019952774050000954 0.0002455003561999819
                    CHANNELS 3 Yrotation Xrotation Zrotation
                    JOINT rightMiddleDistal
                    {
                      OFFSET -0.20675694929999955 -0.012273788999999091 0.00030209124000002766
                      CHANNELS 3 Yrotation Xrotation Zrotation
                      End Site
                      {
                        OFFSET -0.20675694929999955 -0.012273788999999091 0.00030209124000002766
                      }
                    }
                  }
                }
                JOINT rightLittleProximal
                {
                  OFFSET -0.5346811737299992 -0.011214256288399227 -0.24363941305000003
                  CHANNELS 3 Yrotation Xrotation Zrotation
                  JOINT rightLittleIntermediate
                  {
                    OFFSET -0.21757715980000092 -0.011771559690000988 0.01201554387
                    CHANNELS 3 Yrotation Xrotation Zrotation
                    JOINT rightLittleDistal
                    {
                      OFFSET -0.1475201849000004 -0.00822055339600003 0.006082065407000015
                      CHANNELS 3 Yrotation Xrotation Zrotation
                      End Site
                      {
                        OFFSET -0.1475201849000004 -0.00822055339600003 0.006082065407000015
                      }
                    }
                  }
                }
                JOINT rightRingProximal
                {
                  OFFSET -0.5800810755299999 0.027657985680600072 -0.12066365025000003
                  CHANNELS 3 Yrotation Xrotation Zrotation
                  JOINT rightRingIntermediate
                  {
                    OFFSET -0.26166445029999974 -0.013623118409999302 0.011164098990000045
                    CHANNELS 3 Yrotation Xrotation Zrotation
                    JOINT rightRingDistal
                    {
                      OFFSET -0.17666387530000027 -0.009072900100000503 0.005668185599999959
                      CHANNELS 3 Yrotation Xrotation Zrotation
                      End Site
                      {
                        OFFSET -0.17666387530000027 -0.009072900100000503 0.005668185599999959
                      }
                    }
                  }
                }
                JOINT rightThumbProximal
                {
                  OFFSET -0.10997596379000074 -0.09577489355940072 0.16989765924999997
                  CHANNELS 3 Yrotation Xrotation Zrotation
                  JOINT rightThumbIntermediate
                  {
                    OFFSET -0.31036620999999986 -0.08229339117999834 0.15440884469999996
                    CHANNELS 3 Yrotation Xrotation Zrotation
                    JOINT rightThumbDistal
                    {
                      OFFSET -0.21631306399999906 -0.08825326400000111 0.018656797720000014
                      CHANNELS 3 Yrotation Xrotation Zrotation
                      End Site
                      {
                        OFFSET -0.21631306399999906 -0.08825326400000111 0.018656797720000014
                      }
                    }
                  }
                }
              }
            }
          }
        }
      }
    }
  }
}
MOTION
Frames: 4
Frame Time: 0.03333333333333333
-0.21727579832077026 -0.17461047880859404 -0.0070945098996162415 -7.947181968988214 7.645155455068413 -1.6907453850970149 17.406419430433743 -17.086799665269528 6.844009822174767 6.0971720998899075 12.24869689134419 4.1941566254961655 1.2426619289329872 -1.0110244105494626 -11.850047308423612 0.0000042999366919147485 -1.4210318545768945 -0.000001439593578285076 -9.335915556339637 -16.66153945763938 0.17468989131031132 -9.540890060477034 14.348613046939768 -6.063347853288652 -6.175282445197785 -2.526851370525836 7.401187716337575 0.0014696377244083165 -0.9160943983318667 0.6349292666884443 -0.86783463166576 -0.6778998181400167 1.4964402978468412 -1.4280075136785015 -2.056653004170828 1.5569415828517459 0 0 0 -6.248751778697455 1.9789662802179828 -10.251524689036408 -46.8437841500787 19.31696286924055 -67.56357408086858 -29.56012903327335 0.09633508783635476 0.3651431576387261 -9.17466974376429 -35.55222225970893 3.8111668374039667 -1.3497848986943468 0.14959542673339493 12.64614396856513 2.4347343690799703 0.5010275481470144 -23.25476986946755 1.242853529694097 0.12655957287473465 -11.62995967342523 -1.3514591480772173 0.14997099503958772 12.66215931813307 2.436331244705552 0.5017052035621379 -23.270756588507645 1.2428531029066596 0.12655734505369165 -11.629958000929816 2.6088514191730847 -0.7548472256287587 13.083247841061816 -1.629858363852869 0.504236419788034 -23.712506370416023 1.2428521426349257 0.12656392179485515 -11.629947277506638 -1.3497850053868061 0.14959542673339493 12.64614396856513 2.4347343690799703 0.5010274947841212 -23.25476986946755 1.242853529694097 0.1265595595344889 -11.62995967342523 -22.48961260778225 -7.572389677753645 15.467795542931697 46.85937341087944 14.4107120008013 14.8809410230673 20.362049068896095 6.6521544198794205 6.393330264116022 2.41889927684135 -2.8316100254738683 -2.4110864000483603 8.04596687542905 1.1851363097902818 1.010983776632452 0 0 0 0 0 0 0 0 0 1.97795893993947 1.6499635428329569 7.623099007014111 49.60531362257271 13.452261528609645 67.71609988591885 26.786433762077753 0.07941871034637532 -0.3335406107541671 15.571497070055846 -57.28688437858788 -18.36820256192096 1.2848182328893842 0.13384960468300514 -11.89561282341008 -2.6582582781203183 0.5951990455536192 25.23674829561614 -1.362024987531427 0.15062939018830684 12.621702123872552 1.2848182328893842 0.13384963136350436 -11.89561282341008 -2.6582582781203183 0.5951990455536192 25.23674829561614 -1.362024987531427 0.1506293768480475 12.621702123872552 1.2848187663652182 0.13384715007707434 -11.895605304441554 -2.6582616897241365 0.5951962172758123 25.23673766008442 -1.3620232804606922 0.15063620706082217 12.621704623305437 1.2848182328893842 0.13384957800250588 -11.895611987969154 -2.6582584913455576 0.5951990989173515 25.23674829561614 -1.362024987531427 0.15062939018830684 12.621702123872552 -5.275699417588822 2.31276485900524 -2.3842865868371197 -26.500198300355475 27.34532143339509 -26.787525007731105 -6.071500180139134 11.33510059895141 -13.956306375069289
-0.21586039662361145 -0.1745418142578128 -0.003185671055689454 -7.961887001937288 7.639946414157951 -1.670840880768713 17.42980016434602 -17.050621477427097 6.815759618711213 6.076885563974443 12.25688672361099 4.186785307883044 1.302170083315772 -1.041927758600675 -11.862459836872024 -1.3056945453320861e-8 -1.4400349880952001 -0.000004267873293951989 -9.292918314671153 -16.652602811779982 0.13118000711088532 -9.54837584068603 14.367137100375372 -6.076505635030286 -6.185946005371004 -2.5184487115681495 7.464052022050724 0.001001053245274706 -0.9592682571469012 0.6053749954667134 -0.8717680886348984 -0.6657020760720374 1.4956323020058966 -1.4303498937411037 -2.0369013693008142 1.5713708248579499 0 0 0 -6.222857376048711 1.9765663869725811 -10.213099876645309 -46.96357023197737 19.28963399010625 -67.6154187261839 -29.731633913196816 0.09743805157244868 0.36707065084314017 -8.594412836570841 -35.653048700750745 3.8861806482611234 -1.3497848986943468 0.14959542673339493 12.64614396856513 2.4347343690799703 0.5010275481470144 -23.25476986946755 1.242853529694097 0.12655957287473465 -11.62995967342523 -1.3514591480772173 0.14997099503958772 12.66215931813307 2.436331244705552 0.5017052035621379 -23.270756588507645 1.2428531029066596 0.12655734505369165 -11.629958000929816 2.6088514191730847 -0.7548472256287587 13.083247841061816 -1.629858363852869 0.504236419788034 -23.712506370416023 1.2428521426349257 0.12656392179485515 -11.629947277506638 -1.3497850053868061 0.14959542673339493 12.64614396856513 2.4347343690799703 0.5010274947841212 -23.25476986946755 1.242853529694097 0.1265595595344889 -11.62995967342523 -22.48961260778225 -7.572389677753645 15.467795542931697 46.85937341087944 14.4107120008013 14.8809410230673 20.362049068896095 6.6521544198794205 6.393330264116022 2.3887600288473325 -2.81783045164228 -2.3709201527958146 7.978781429587316 1.255239769935799 1.0713551606440224 0 0 0 0 0 0 0 0 0 1.9671236103963234 1.6466779295103626 7.573478650275291 49.752318075912804 13.382666221760966 67.79387229589452 26.654771167551154 0.07866249962996066 -0.3320299493773493 15.831782159346956 -57.50399524691126 -18.706726385039847 1.2848182328893842 0.13384960468300514 -11.89561282341008 -2.6582582781203183 0.5951990455536192 25.23674829561614 -1.362024987531427 0.15062939018830684 12.621702123872552 1.2848182328893842 0.13384963136350436 -11.89561282341008 -2.6582582781203183 0.5951990455536192 25.23674829561614 -1.362024987531427 0.1506293768480475 12.621702123872552 1.2848187663652182 0.13384715007707434 -11.895605304441554 -2.6582616897241365 0.5951962172758123 25.23673766008442 -1.3620232804606922 0.15063620706082217 12.621704623305437 1.2848182328893842 0.13384957800250588 -11.895611987969154 -2.6582584913455576 0.5951990989173515 25.23674829561614 -1.362024987531427 0.15062939018830684 12.621702123872552 -5.275699417588822 2.31276485900524 -2.3842865868371197 -26.500198300355475 27.34532143339509 -26.787525007731105 -6.071500180139134 11.33510059895141 -13.956306375069289
-0.21140305697917938 -0.1745723318359378 0.0006830284255556762 -7.954391786045133 7.697480259816404 -1.6232794864401017 17.387598837171115 -17.01261995482226 6.717634257285786 6.078252425683846 12.179343360288767 4.187723396039636 1.4759962469792094 -1.0992725139275445 -11.896183621383518 -0.000005935515436944978 -1.4453997746349363 -0.0000015180076552716676 -9.28134675441375 -16.745121064257084 0.052226840121971006 -9.551730697678316 14.430199487799324 -6.0973741156060655 -6.190641616077467 -2.460402634121346 7.5846648279648745 0.0001233173433723418 -1.072297067319265 0.5420935289330645 -0.8930330954229059 -0.6676859000783634 1.4844452632439582 -1.4545459106830916 -2.0353770612478477 1.6057437523763942 0 0 0 -6.177798150503831 1.9723915164291934 -10.146134699028412 -47.17747578378762 19.221466452792715 -67.71469176395259 -30.09790637433083 0.0997866396096222 0.3711915347416645 -7.1578362878253525 -35.85750752655073 4.007761574817615 -1.3497848986943468 0.14959542673339493 12.64614396856513 2.4347343690799703 0.5010275481470144 -23.25476986946755 1.242853529694097 0.12655957287473465 -11.62995967342523 -1.3514591480772173 0.14997099503958772 12.66215931813307 2.436331244705552 0.5017052035621379 -23.270756588507645 1.2428531029066596 0.12655734505369165 -11.629958000929816 2.6088514191730847 -0.7548472256287587 13.083247841061816 -1.629858363852869 0.504236419788034 -23.712506370416023 1.2428521426349257 0.12656392179485515 -11.629947277506638 -1.3497850053868061 0.14959542673339493 12.64614396856513 2.4347343690799703 0.5010274947841212 -23.25476986946755 1.242853529694097 0.1265595595344889 -11.62995967342523 -22.48961260778225 -7.572389677753645 15.467795542931697 46.85937341087944 14.4107120008013 14.8809410230673 20.362049068896095 6.6521544198794205 6.393330264116022 2.3280441632707465 -2.7892379280096944 -2.3013917387998797 7.831740904114434 1.3612700388718595 1.2156086936716384 0 0 0 0 0 0 0 0 0 1.9539820633322642 1.6425940352201815 7.5121705304644735 49.71925110672996 13.237851388110919 67.83418984614013 26.545089650853747 0.07801464490945592 -0.33074791585962854 15.972013995693251 -57.57089122859788 -19.199616190493405 1.2848182328893842 0.13384960468300514 -11.89561282341008 -2.6582582781203183 0.5951990455536192 25.23674829561614 -1.362024987531427 0.15062939018830684 12.621702123872552 1.2848182328893842 0.13384963136350436 -11.89561282341008 -2.6582582781203183 0.5951990455536192 25.23674829561614 -1.362024987531427 0.1506293768480475 12.621702123872552 1.2848187663652182 0.13384715007707434 -11.895605304441554 -2.6582616897241365 0.5951962172758123 25.23673766008442 -1.3620232804606922 0.15063620706082217 12.621704623305437 1.2848182328893842 0.13384957800250588 -11.895611987969154 -2.6582584913455576 0.5951990989173515 25.23674829561614 -1.362024987531427 0.15062939018830684 12.621702123872552 -5.275699417588822 2.31276485900524 -2.3842865868371197 -26.500198300355475 27.34532143339509 -26.787525007731105 -6.071500180139134 11.33510059895141 -13.956306375069289
-0.20588324964046478 -0.17563091032714873 -0.0002590739168226719 -7.848203179891537 7.917052089813283 -1.5973029162578822 17.170844895225184 -17.141853858970325 6.589524095349051 6.105295519966016 12.036996973768682 4.224464000498532 1.6460178960005145 -1.144736888186499 -11.905251301062838 -0.000008114901485988533 -1.4057533022465245 0.000001001252106913609 -9.427518860732421 -17.03943577314882 0.06449407975524833 -9.529412330978621 14.523219225289552 -6.137105018608845 -6.197418670199326 -2.38472757548904 7.654833424541242 -0.00014483883564441084 -1.1646121856603702 0.519969943075354 -0.949301862778107 -0.7246321656411078 1.4837205268279148 -1.5328672986802718 -2.1204075770522977 1.665379002290133 0 0 0 -6.143648568638475 1.9696332628638409 -10.077210374228777 -47.33771014828845 19.15038622632352 -67.82328118493835 -30.449663030936662 0.10207086785357522 0.3750994112400826 -5.578843471048009 -36.00610785367381 4.0839373502282195 -1.3497848986943468 0.14959542673339493 12.64614396856513 2.4347343690799703 0.5010275481470144 -23.25476986946755 1.242853529694097 0.12655957287473465 -11.62995967342523 -1.3514591480772173 0.14997099503958772 12.66215931813307 2.436331244705552 0.5017052035621379 -23.270756588507645 1.2428531029066596 0.12655734505369165 -11.629958000929816 2.6088514191730847 -0.7548472256287587 13.083247841061816 -1.629858363852869 0.504236419788034 -23.712506370416023 1.2428521426349257 0.12656392179485515 -11.629947277506638 -1.3497850053868061 0.14959542673339493 12.64614396856513 2.4347343690799703 0.5010274947841212 -23.25476986946755 1.242853529694097 0.1265595595344889 -11.62995967342523 -22.48961260778225 -7.572389677753645 15.467795542931697 46.85937341087944 14.4107120008013 14.8809410230673 20.362049068896095 6.6521544198794205 6.393330264116022 2.2621077653664483 -2.7766711403371462 -2.238607400867976 7.630793279077649 1.4191520146869459 1.3986370452521106 0 0 0 0 0 0 0 0 0 1.9516494649374507 1.642018568839185 7.512956513079491 49.192603882952966 13.054917129512386 67.69524917909507 26.61638911300756 0.07843045307301003 -0.33155462531467994 15.500354100850252 -57.153972764873245 -19.189950868216343 1.2848182328893842 0.13384960468300514 -11.89561282341008 -2.6582582781203183 0.5951990455536192 25.23674829561614 -1.362024987531427 0.15062939018830684 12.621702123872552 1.2848182328893842 0.13384963136350436 -11.89561282341008 -2.6582582781203183 0.5951990455536192 25.23674829561614 -1.362024987531427 0.1506293768480475 12.621702123872552 1.2848187663652182 0.13384715007707434 -11.895605304441554 -2.6582616897241365 0.5951962172758123 25.23673766008442 -1.3620232804606922 0.15063620706082217 12.621704623305437 1.2848182328893842 0.13384957800250588 -11.895611987969154 -2.6582584913455576 0.5951990989173515 25.23674829561614 -1.362024987531427 0.15062939018830684 12.621702123872552 -5.275699417588822 2.31276485900524 -2.3842865868371197 -26.500198300355475 27.34532143339509 -26.787525007731105 -6.071500180139134 11.33510059895141 -13.956306375069289
